# xmcd CD database file
#
# Track frame offsets:
#	182
#	3482
#	8732
#	16117
#	21595
#	29032
#	41282
#	44657
#	46982
#	50390
#	57532
#	62645
#	67207
#	70932
#	79832
#	85495
#	89357
#	92682
#	98082
#	105795
#	111290
#	116957
#	122465
#	128340
#	130757
#	137332
#	143132
#	147890
#	155207
#	161240
#	168257
#	175640
#	182807
#	186990
#	191715
#	196382
#	203990
#	207302
#	212882
#	218057
#	223532
#	231065
#	238982
#	242357
#	245090
#	248582
#	255482
#	258632
#	261857
#	265457
#	270302
#	276290
#	280457
#	284557
#	290040
#	294632
#	300632
#	306557
#	312232
#	318882
#	321507
#	328632
#	334757
#	340065
#	347465
#
# Disc length: 4713 seconds
#
# Revision: 0
# Processed by: cddbd v1.5.1PL0 Copyright (c) Steve Scherf et al.
# Submitted via: CDex 1.51
#
DISCID=ee126741
DTITLE=Kerin Bailey - Jazzin' Around Plus
DYEAR=1997
DGENRE=Jazz
TTITLE0=Melinda's Mini March
TTITLE1=Disco Kid
TTITLE2=Mellissa's Mood
TTITLE3=Watlz for Wendy
TTITLE4=Miss Miles
TTITLE5=Darren's Dilema
TTITLE6=Breezin'
TTITLE7=Two Part Intention
TTITLE8=Raggy Blues
TTITLE9=Little Song
TTITLE10=Study In Latin
TTITLE11=Count Basics
TTITLE12=Triadic Excursion
TTITLE13=Standard Procedure
TTITLE14=Bop on a Beatin' Boogie
TTITLE15=Scoobie Du Wup
TTITLE16=Swing Mode
TTITLE17=Two For One
TTITLE18=Blue Waltz
TTITLE19=Latin Break
TTITLE20=Summer Rain
TTITLE21=Riff-Raff Rock
TTITLE22=Mullumbimby Bounce
TTITLE23=Grove Time
TTITLE24=Al's Cafe
TTITLE25=Silken Touch
TTITLE26=Giant Strides
TTITLE27=Morning Song
TTITLE28=Boogie Rock
TTITLE29=Tripplet Falls
TTITLE30=Serenity
TTITLE31=Shinning Jade
TTITLE32=Busker Dan
TTITLE33=Winter Sun
TTITLE34=Toccatina
TTITLE35=Reflection
TTITLE36=Melinda's Mini March
TTITLE37=Disco Kid
TTITLE38=Melissas's Mood
TTITLE39=Waltz For Wendy
TTITLE40=Miss Miles
TTITLE41=Darren's Dilema
TTITLE42=Breezin'
TTITLE43=Two Part Intention
TTITLE44=Raggy Blues
TTITLE45=Little Song
TTITLE46=Study In Latin
TTITLE47=Count Basics
TTITLE48=Triadic Excursion
TTITLE49=Standard Procedure
TTITLE50=Bop a Beatin' Boogie
TTITLE51=Scoobie Du Wup
TTITLE52=Swing Mode
TTITLE53=Two for one
TTITLE54=Blue Waltz
TTITLE55=Latin Break
TTITLE56=Summer Rain
TTITLE57=Riff-Raff Rock
TTITLE58=Mullumbimby Bounce
TTITLE59=Groove Time
TTITLE60=Al's Cafe
TTITLE61=Silken touch
TTITLE62=Giant Stides
TTITLE63=Morning Song
TTITLE64=Boogie Rock
EXTD=YEAR: 1997
EXTT0=
EXTT1=
EXTT2=
EXTT3=
EXTT4=
EXTT5=
EXTT6=
EXTT7=
EXTT8=
EXTT9=
EXTT10=
EXTT11=
EXTT12=
EXTT13=
EXTT14=
EXTT15=
EXTT16=
EXTT17=
EXTT18=
EXTT19=
EXTT20=
EXTT21=
EXTT22=
EXTT23=
EXTT24=
EXTT25=
EXTT26=
EXTT27=
EXTT28=
EXTT29=
EXTT30=
EXTT31=
EXTT32=
EXTT33=
EXTT34=
EXTT35=
EXTT36=
EXTT37=
EXTT38=
EXTT39=
EXTT40=
EXTT41=
EXTT42=
EXTT43=
EXTT44=
EXTT45=
EXTT46=
EXTT47=
EXTT48=
EXTT49=
EXTT50=
EXTT51=
EXTT52=
EXTT53=
EXTT54=
EXTT55=
EXTT56=
EXTT57=
EXTT58=
EXTT59=
EXTT60=
EXTT61=
EXTT62=
EXTT63=
EXTT64=
PLAYORDER=
